# xmcd CD database file
#
# Track frame offsets:
#	150
#	20963
#	49990
#	71980
#	83292
#
# Disc length: 1378 seconds
#
# Revision: 0
# Processed by: cddbd v1.5.2PL0 Copyright (c) Steve Scherf et al.
# Submitted via: CDex 1.70beta2
#
DISCID=40056005
DTITLE=Divers - Jazzmag n°642 - 10-2012 (1961 Cinq plumes bien affûtées)
DYEAR=2012
DGENRE=Jazz
TTITLE0=Benny Carter - The Legend
TTITLE1=John Carisi - Angkor Wat
TTITLE2=Booker Little - Man of Words
TTITLE3=Quincy Jones - Straight, no Chaser
TTITLE4=Carla Bley - Rhymes
EXTD=YEAR: 2012
EXTT0=
EXTT1=
EXTT2=
EXTT3=
EXTT4=
PLAYORDER=
